# xmcd CD database file
#
# Track frame offsets:
#	150
#	15891
#	32573
#	45683
#	63393
#	84962
#	103513
#	121797
#	139721
#	154555
#	166772
#	179925
#	195815
#	216232
#	232304
#	252607
#
# Disc length: 3635 seconds
#
# Revision: 0
# Processed by: cddbd v1.5.1PL0 Copyright (c) Steve Scherf et al.
# Submitted via: CDex 1.51
#
DISCID=ce0e3110
DTITLE=Conte Candoli - Modern Sounds From The West
DYEAR=1956
DGENRE=Jazz
TTITLE0=The Blindfold Test No 1
TTITLE1=Culver City
TTITLE2=Van Nuys Indeed
TTITLE3=Burbank Bounce
TTITLE4=Santa Monica
TTITLE5=The Blindfold Test No 2
TTITLE6=Here's Pete
TTITLE7=No Love, No Nothin'
TTITLE8=I'm Getting Sentimental Over You
TTITLE9=Come Love
TTITLE10=Tnt
TTITLE11=Thank You Judge
TTITLE12=Santa Anita
TTITLE13=Hooray For Hollywood
TTITLE14=The Blindfold Test No 3
TTITLE15=Arcadia
EXTD=YEAR: 1956
EXTT0=
EXTT1=
EXTT2=
EXTT3=
EXTT4=
EXTT5=
EXTT6=
EXTT7=
EXTT8=
EXTT9=
EXTT10=
EXTT11=
EXTT12=
EXTT13=
EXTT14=
EXTT15=
PLAYORDER=
